<svg width="15" height="15" viewBox="0 0 15 15" fill="none" xmlns="http://www.w3.org/2000/svg">
<path d="M8.04 1.04912C7.97335 0.971025 7.89055 0.908316 7.79733 0.865316C7.7041 0.822316 7.60266 0.800049 7.5 0.800049C7.39734 0.800049 7.2959 0.822316 7.20267 0.865316C7.10945 0.908316 7.02665 0.971025 6.96 1.04912C5.5 2.79946 2.5 7.60041 2.5 8.42057C2.5 9.24073 5.74 12.9315 7.09 14.0717C7.20224 14.1736 7.34841 14.23 7.5 14.23C7.65159 14.23 7.79776 14.1736 7.91 14.0717C9.26 12.9315 12.5 9.26074 12.5 8.42057C12.5 7.58041 9.5 2.79946 8.04 1.04912ZM7.32 12.1813L4.58 8.53059C4.55791 8.49446 4.54621 8.45292 4.54621 8.41057C4.54621 8.36821 4.55791 8.32668 4.58 8.29054L5.38 6.69023C5.40154 6.66315 5.42891 6.64127 5.46008 6.62624C5.49124 6.6112 5.5254 6.60339 5.56 6.60339C5.5946 6.60339 5.62876 6.6112 5.65992 6.62624C5.69109 6.64127 5.71846 6.66315 5.74 6.69023L7.34 8.26054C7.36057 8.28233 7.38536 8.2997 7.41288 8.31157C7.44039 8.32343 7.47004 8.32956 7.5 8.32956C7.52996 8.32956 7.55961 8.32343 7.58712 8.31157C7.61464 8.2997 7.63943 8.28233 7.66 8.26054L9.28 6.64022C9.30154 6.61314 9.32891 6.59126 9.36008 6.57623C9.39124 6.56119 9.4254 6.55338 9.46 6.55338C9.4946 6.55338 9.52876 6.56119 9.55992 6.57623C9.59109 6.59126 9.61846 6.61314 9.64 6.64022L10.44 8.24054C10.4621 8.27667 10.4738 8.3182 10.4738 8.36056C10.4738 8.40291 10.4621 8.44445 10.44 8.48058L7.68 12.1813C7.6597 12.2102 7.63275 12.2338 7.60142 12.2501C7.57009 12.2663 7.5353 12.2748 7.5 12.2748C7.4647 12.2748 7.42991 12.2663 7.39858 12.2501C7.36725 12.2338 7.3403 12.2102 7.32 12.1813Z" fill="#81E6D9"/>
</svg>
