<svg width="15" height="15" viewBox="0 0 15 15" fill="none" xmlns="http://www.w3.org/2000/svg">
<path d="M13.0714 1.92857V1H12.1429V1.92857L11.2143 2.85714H9.35714V1.92857H8.42857V2.85714H6.57143V1.92857H5.64286V2.85714H3.78571L2.85714 1.92857V1H1.92857V1.92857H1V2.85714H1.92857L2.85714 3.78571V5.64286H1.92857V6.57143H2.85714V7.5H3.78571V6.57143H5.64286L6.57143 5.64286V3.78571H8.42857V5.64286L1 11.2143V14H3.78571L9.35714 6.57143H11.2143V7.5H12.1429V6.57143H13.0714V5.64286H12.1429V3.78571L13.0714 2.85714H14V1.92857H13.0714Z" fill="#E25656"/>
<path d="M8.02929 9.75643L11.2143 14H14V11.2143L9.75643 8.02929L8.02929 9.75643Z" fill="#E25656"/>
</svg>
