<svg width="15" height="15" viewBox="0 0 15 15" fill="none" xmlns="http://www.w3.org/2000/svg">
<path d="M14 5.63324C14 3.57057 11.7157 1.8999 8.89286 1.8999C6.07 1.8999 3.78571 3.57057 3.78571 5.63324C3.7765 5.76685 3.7765 5.90095 3.78571 6.03457C2.12357 6.65057 1 7.90124 1 9.36657C1 11.4292 3.28429 13.0999 6.10714 13.0999C8.93 13.0999 11.2143 11.4292 11.2143 9.36657C11.2235 9.23295 11.2235 9.09885 11.2143 8.96524C12.8486 8.34924 14 7.08924 14 5.63324ZM6.10714 11.3172C4.315 11.3172 2.85714 10.2999 2.85714 8.94657C2.90787 8.55215 3.06303 8.17865 3.3064 7.86507C3.54978 7.55149 3.87244 7.30934 4.24071 7.1639C4.77538 7.8881 5.47991 8.46817 6.29158 8.85247C7.10324 9.23677 7.99686 9.41338 8.89286 9.36657H9.30143C9.03214 10.4679 7.71357 11.3172 6.10714 11.3172Z" fill="#F3A05A"/>
</svg>
