<svg width="15" height="15" viewBox="0 0 15 15" fill="none" xmlns="http://www.w3.org/2000/svg">
<path d="M7.5 1.5C4.18594 1.5 1.5 3.85078 1.5 6.75C1.5 8.39297 2.36484 9.85781 3.71484 10.8211C3.93984 10.9828 4.07109 11.2453 4.03125 11.5219L3.81094 13.0734C3.77813 13.2984 3.95156 13.5 4.17891 13.5H6V12.1875C6 12.0844 6.08437 12 6.1875 12H6.5625C6.66563 12 6.75 12.0844 6.75 12.1875V13.5H8.25V12.1875C8.25 12.0844 8.33437 12 8.4375 12H8.8125C8.91563 12 9 12.0844 9 12.1875V13.5H10.8211C11.0484 13.5 11.2219 13.2984 11.1891 13.0734L10.9688 11.5219C10.9289 11.2477 11.0578 10.9828 11.2852 10.8211C12.6352 9.85781 13.5 8.39297 13.5 6.75C13.5 3.85078 10.8141 1.5 7.5 1.5ZM5.25 9C4.42266 9 3.75 8.32734 3.75 7.5C3.75 6.67266 4.42266 6 5.25 6C6.07734 6 6.75 6.67266 6.75 7.5C6.75 8.32734 6.07734 9 5.25 9ZM9.75 9C8.92266 9 8.25 8.32734 8.25 7.5C8.25 6.67266 8.92266 6 9.75 6C10.5773 6 11.25 6.67266 11.25 7.5C11.25 8.32734 10.5773 9 9.75 9Z" fill="#B78787"/>
</svg>
