<svg width="17" height="20" viewBox="0 0 17 20" fill="none" xmlns="http://www.w3.org/2000/svg">
<path d="M16.999 11.875C16.999 16.3633 13.1946 20 8.49949 20C3.80434 20 0 16.3633 0 11.875C0 7.8125 3.11784 4.44531 7.19188 3.84766V2.5H6.04771C5.77802 2.5 5.55736 2.28906 5.55736 2.03125V0.46875C5.55736 0.210938 5.77802 0 6.04771 0H10.9513C11.221 0 11.4416 0.210938 11.4416 0.46875V2.03125C11.4416 2.28906 11.221 2.5 10.9513 2.5H9.8071V3.84766C11.3395 4.07422 12.737 4.69141 13.8811 5.58984L15.0049 4.51562C15.1969 4.33203 15.5075 4.33203 15.6995 4.51562L16.856 5.62109C17.048 5.80469 17.048 6.10156 16.856 6.28516L15.6546 7.43359L15.6301 7.45703C16.4964 8.72266 16.999 10.2422 16.999 11.875ZM9.8071 13.2812V7.36328C9.8071 7.10547 9.58644 6.89453 9.31675 6.89453H7.68223C7.41254 6.89453 7.19188 7.10547 7.19188 7.36328V13.2812C7.19188 13.5391 7.41254 13.75 7.68223 13.75H9.31675C9.58644 13.75 9.8071 13.5391 9.8071 13.2812Z" fill="#BEE3F8"/>
</svg>
